<svg width="80" height="80" viewBox="0 0 80 80" fill="none" xmlns="http://www.w3.org/2000/svg">
<rect width="80" height="80" rx="5" fill="#F4F6F7" fill-opacity="0.968627"/>
<g clip-path="url(#clip0_70_4410)">
<path d="M41.25 31.6667C41.25 31.3351 41.1183 31.0172 40.8838 30.7828C40.6494 30.5484 40.3315 30.4167 40 30.4167C39.6684 30.4167 39.3505 30.5484 39.1161 30.7828C38.8817 31.0172 38.75 31.3351 38.75 31.6667V38.75H31.6666C31.3351 38.75 31.0172 38.8817 30.7827 39.1161C30.5483 39.3505 30.4166 39.6685 30.4166 40C30.4166 40.3315 30.5483 40.6495 30.7827 40.8839C31.0172 41.1183 31.3351 41.25 31.6666 41.25H38.75V48.3333C38.75 48.6648 38.8817 48.9828 39.1161 49.2172C39.3505 49.4516 39.6684 49.5833 40 49.5833C40.3315 49.5833 40.6494 49.4516 40.8838 49.2172C41.1183 48.9828 41.25 48.6648 41.25 48.3333V41.25H48.3333C48.6648 41.25 48.9828 41.1183 49.2172 40.8839C49.4516 40.6495 49.5833 40.3315 49.5833 40C49.5833 39.6685 49.4516 39.3505 49.2172 39.1161C48.9828 38.8817 48.6648 38.75 48.3333 38.75H41.25V31.6667Z" fill="#AAB1B8"/>
</g>
<defs>
<clipPath id="clip0_70_4410">
<rect width="40" height="40" fill="white" transform="translate(20 20)"/>
</clipPath>
</defs>
</svg>
