<svg width="31" height="39" viewBox="0 0 31 39" fill="none" xmlns="http://www.w3.org/2000/svg">
<path d="M26.75 21.7125V15.75C26.7473 13.0934 25.8045 10.5234 24.0887 8.4952C22.3728 6.46703 19.9945 5.11152 17.375 4.66875V2.625C17.375 2.12772 17.1775 1.65081 16.8258 1.29917C16.4742 0.947544 15.9973 0.75 15.5 0.75C15.0027 0.75 14.5258 0.947544 14.1742 1.29917C13.8225 1.65081 13.625 2.12772 13.625 2.625V4.66875C11.0055 5.11152 8.62723 6.46703 6.91135 8.4952C5.19546 10.5234 4.25269 13.0934 4.25 15.75V21.7125C3.15584 22.0993 2.20812 22.8151 1.53676 23.7618C0.865397 24.7084 0.503262 25.8395 0.5 27V30.75C0.5 31.2473 0.697544 31.7242 1.04918 32.0758C1.40081 32.4275 1.87772 32.625 2.375 32.625H8.2625C8.69428 34.2138 9.63688 35.6164 10.9449 36.6164C12.2529 37.6163 13.8536 38.1581 15.5 38.1581C17.1464 38.1581 18.7471 37.6163 20.0551 36.6164C21.3631 35.6164 22.3057 34.2138 22.7375 32.625H28.625C29.1223 32.625 29.5992 32.4275 29.9508 32.0758C30.3025 31.7242 30.5 31.2473 30.5 30.75V27C30.4967 25.8395 30.1346 24.7084 29.4632 23.7618C28.7919 22.8151 27.8442 22.0993 26.75 21.7125ZM8 15.75C8 13.7609 8.79018 11.8532 10.1967 10.4467C11.6032 9.04018 13.5109 8.25 15.5 8.25C17.4891 8.25 19.3968 9.04018 20.8033 10.4467C22.2098 11.8532 23 13.7609 23 15.75V21.375H8V15.75ZM15.5 34.5C14.8456 34.4961 14.2036 34.3209 13.6378 33.992C13.072 33.663 12.6022 33.1918 12.275 32.625H18.725C18.3978 33.1918 17.928 33.663 17.3622 33.992C16.7964 34.3209 16.1544 34.4961 15.5 34.5ZM26.75 28.875H4.25V27C4.25 26.5027 4.44754 26.0258 4.79918 25.6742C5.15081 25.3225 5.62772 25.125 6.125 25.125H24.875C25.3723 25.125 25.8492 25.3225 26.2008 25.6742C26.5525 26.0258 26.75 26.5027 26.75 27V28.875Z" fill="black"/>
</svg>
