<svg width="50" height="50" viewBox="0 0 50 50" fill="none" xmlns="http://www.w3.org/2000/svg">
<rect width="50" height="50" rx="5" fill="#F4F6F7"/>
<g clip-path="url(#clip0_1011_1182)">
<path d="M25.3438 19.875C25.3438 19.6512 25.2549 19.4366 25.0966 19.2784C24.9384 19.1201 24.7238 19.0312 24.5 19.0312C24.2762 19.0312 24.0616 19.1201 23.9034 19.2784C23.7451 19.4366 23.6562 19.6512 23.6562 19.875V24.6562H18.875C18.6512 24.6562 18.4366 24.7451 18.2784 24.9034C18.1201 25.0616 18.0312 25.2762 18.0312 25.5C18.0312 25.7238 18.1201 25.9384 18.2784 26.0966C18.4366 26.2549 18.6512 26.3438 18.875 26.3438H23.6562V31.125C23.6562 31.3488 23.7451 31.5634 23.9034 31.7216C24.0616 31.8799 24.2762 31.9688 24.5 31.9688C24.7238 31.9688 24.9384 31.8799 25.0966 31.7216C25.2549 31.5634 25.3438 31.3488 25.3438 31.125V26.3438H30.125C30.3488 26.3438 30.5634 26.2549 30.7216 26.0966C30.8799 25.9384 30.9688 25.7238 30.9688 25.5C30.9688 25.2762 30.8799 25.0616 30.7216 24.9034C30.5634 24.7451 30.3488 24.6562 30.125 24.6562H25.3438V19.875Z" fill="#AAB1B8"/>
</g>
<defs>
<clipPath id="clip0_1011_1182">
<rect width="27" height="27" fill="white" transform="translate(11 12)"/>
</clipPath>
</defs>
</svg>
