<svg width="22" height="23" viewBox="0 0 22 23" fill="none" xmlns="http://www.w3.org/2000/svg">
<path fill-rule="evenodd" clip-rule="evenodd" d="M6.34615 7.66383C6.00953 7.66383 5.6867 7.52922 5.44867 7.28963C5.21065 7.05004 5.07692 6.72508 5.07692 6.38624V5.11376C4.40368 5.11376 3.75801 5.38297 3.28196 5.86215C2.80591 6.34134 2.53846 6.99126 2.53846 7.66894V9.37239H19.4615V7.66894C19.4615 6.99126 19.1941 6.34134 18.718 5.86215C18.242 5.38297 17.5963 5.11376 16.9231 5.11376V6.39135C16.9231 6.73019 16.7894 7.05515 16.5513 7.29474C16.3133 7.53433 15.9905 7.66894 15.6538 7.66894C15.3172 7.66894 14.9944 7.53433 14.7564 7.29474C14.5183 7.05515 14.3846 6.73019 14.3846 6.39135V5.11376H7.61539V6.38624C7.61539 6.72508 7.48166 7.05004 7.24364 7.28963C7.00561 7.52922 6.68278 7.66383 6.34615 7.66383ZM14.3846 2.55858H7.61539V1.27759C7.61539 0.938751 7.48166 0.613791 7.24364 0.374197C7.00561 0.134603 6.68278 0 6.34615 0C6.00953 0 5.6867 0.134603 5.44867 0.374197C5.21065 0.613791 5.07692 0.938751 5.07692 1.27759V2.55858C3.73044 2.55858 2.4391 3.09699 1.487 4.05537C0.534889 5.01375 0 6.31359 0 7.66894V17.8896C0 19.245 0.534889 20.5448 1.487 21.5032C2.4391 22.4616 3.73044 23 5.07692 23H16.9231C18.2696 23 19.5609 22.4616 20.513 21.5032C21.4651 20.5448 22 19.245 22 17.8896V7.66894C22 6.31359 21.4651 5.01375 20.513 4.05537C19.5609 3.09699 18.2696 2.55858 16.9231 2.55858V1.281C16.9231 0.942158 16.7894 0.617198 16.5513 0.377604C16.3133 0.13801 15.9905 0.00340686 15.6538 0.00340686C15.3172 0.00340686 14.9944 0.13801 14.7564 0.377604C14.5183 0.617198 14.3846 0.942158 14.3846 1.281V2.55858ZM2.53846 11.9276V17.8896C2.53846 18.5673 2.80591 19.2172 3.28196 19.6964C3.75801 20.1756 4.40368 20.4448 5.07692 20.4448H16.9231C17.5963 20.4448 18.242 20.1756 18.718 19.6964C19.1941 19.2172 19.4615 18.5673 19.4615 17.8896V11.9276H2.53846Z" fill="black"/>
</svg>
