<svg width="20" height="20" viewBox="0 0 20 20" fill="none" xmlns="http://www.w3.org/2000/svg">
<path d="M10.625 5.83337C10.625 5.66761 10.5592 5.50864 10.4419 5.39143C10.3247 5.27422 10.1658 5.20837 10 5.20837C9.83424 5.20837 9.67527 5.27422 9.55806 5.39143C9.44085 5.50864 9.375 5.66761 9.375 5.83337V10C9.37496 10.106 9.40185 10.2102 9.45317 10.303C9.50448 10.3957 9.57852 10.4738 9.66833 10.53L12.1683 12.0925C12.3089 12.1805 12.4786 12.209 12.6402 12.1718C12.7203 12.1534 12.7959 12.1194 12.8627 12.0718C12.9296 12.0241 12.9864 11.9638 13.03 11.8942C13.0736 11.8246 13.103 11.7471 13.1166 11.6661C13.1302 11.5852 13.1277 11.5023 13.1093 11.4223C13.0909 11.3423 13.0569 11.2667 13.0092 11.1998C12.9616 11.1329 12.9013 11.0761 12.8317 11.0325L10.625 9.65337V5.83337Z" fill="black"/>
<path fill-rule="evenodd" clip-rule="evenodd" d="M10 2.70837C8.06613 2.70837 6.21147 3.4766 4.84402 4.84405C3.47656 6.21151 2.70834 8.06617 2.70834 10C2.70834 11.9339 3.47656 13.7886 4.84402 15.156C6.21147 16.5235 8.06613 17.2917 10 17.2917C11.9339 17.2917 13.7885 16.5235 15.156 15.156C16.5234 13.7886 17.2917 11.9339 17.2917 10C17.2917 8.06617 16.5234 6.21151 15.156 4.84405C13.7885 3.4766 11.9339 2.70837 10 2.70837ZM3.95834 10C3.95834 9.20664 4.11461 8.421 4.41823 7.68799C4.72185 6.95499 5.16688 6.28896 5.7279 5.72794C6.28892 5.16692 6.95495 4.72189 7.68796 4.41827C8.42097 4.11465 9.2066 3.95837 10 3.95837C10.7934 3.95837 11.579 4.11465 12.312 4.41827C13.0451 4.72189 13.7111 5.16692 14.2721 5.72794C14.8331 6.28896 15.2782 6.95499 15.5818 7.68799C15.8854 8.421 16.0417 9.20664 16.0417 10C16.0417 11.6024 15.4051 13.1391 14.2721 14.2721C13.1391 15.4052 11.6024 16.0417 10 16.0417C8.39765 16.0417 6.86093 15.4052 5.7279 14.2721C4.59487 13.1391 3.95834 11.6024 3.95834 10Z" fill="black"/>
</svg>
