<svg width="6" height="25" viewBox="0 0 6 25" fill="none" xmlns="http://www.w3.org/2000/svg">
<path d="M3 15.625C2.20435 15.625 1.44129 15.2958 0.87868 14.7097C0.316071 14.1237 0 13.3288 0 12.5C0 11.6712 0.316071 10.8763 0.87868 10.2903C1.44129 9.70424 2.20435 9.375 3 9.375C3.79565 9.375 4.55871 9.70424 5.12132 10.2903C5.68393 10.8763 6 11.6712 6 12.5C6 13.3288 5.68393 14.1237 5.12132 14.7097C4.55871 15.2958 3.79565 15.625 3 15.625ZM3 6.25C2.20435 6.25 1.44129 5.92076 0.87868 5.33471C0.316071 4.74866 0 3.9538 0 3.125C0 2.2962 0.316071 1.50134 0.87868 0.915291C1.44129 0.32924 2.20435 0 3 0C3.79565 0 4.55871 0.32924 5.12132 0.915291C5.68393 1.50134 6 2.2962 6 3.125C6 3.9538 5.68393 4.74866 5.12132 5.33471C4.55871 5.92076 3.79565 6.25 3 6.25ZM3 25C2.20435 25 1.44129 24.6708 0.87868 24.0847C0.316071 23.4987 0 22.7038 0 21.875C0 21.0462 0.316071 20.2513 0.87868 19.6653C1.44129 19.0792 2.20435 18.75 3 18.75C3.79565 18.75 4.55871 19.0792 5.12132 19.6653C5.68393 20.2513 6 21.0462 6 21.875C6 22.7038 5.68393 23.4987 5.12132 24.0847C4.55871 24.6708 3.79565 25 3 25Z" fill="black"/>
</svg>
