<svg width="35" height="35" viewBox="0 0 35 35" fill="none" xmlns="http://www.w3.org/2000/svg">
<g clip-path="url(#clip0_153_1935)">
<path fill-rule="evenodd" clip-rule="evenodd" d="M19.046 23.4211C18.6359 23.8307 18.0799 24.0608 17.5002 24.0608C16.9205 24.0608 16.3645 23.8307 15.9544 23.4211L7.70313 15.1727C7.29295 14.7624 7.0626 14.2059 7.06273 13.6256C7.06287 13.0454 7.29349 12.489 7.70386 12.0789C8.11422 11.6687 8.67072 11.4383 9.25093 11.4385C9.83115 11.4386 10.3875 11.6692 10.7977 12.0796L17.5002 18.7821L24.2027 12.0796C24.6151 11.6809 25.1676 11.4602 25.7411 11.4649C26.3147 11.4696 26.8634 11.6994 27.2692 12.1048C27.675 12.5102 27.9053 13.0587 27.9106 13.6323C27.9158 14.2058 27.6956 14.7585 27.2973 15.1713L19.0475 23.4225L19.046 23.4211Z" fill="black"/>
</g>
<defs>
<clipPath id="clip0_153_1935">
<rect width="35" height="35" fill="white" transform="matrix(0 1 -1 0 35 0)"/>
</clipPath>
</defs>
</svg>
