<svg width="27" height="27" viewBox="0 0 27 27" fill="none" xmlns="http://www.w3.org/2000/svg">
<path d="M14.3438 7.875C14.3438 7.65122 14.2549 7.43661 14.0966 7.27838C13.9384 7.12014 13.7238 7.03125 13.5 7.03125C13.2762 7.03125 13.0616 7.12014 12.9034 7.27838C12.7451 7.43661 12.6562 7.65122 12.6562 7.875V12.6562H7.875C7.65122 12.6562 7.43661 12.7451 7.27838 12.9034C7.12014 13.0616 7.03125 13.2762 7.03125 13.5C7.03125 13.7238 7.12014 13.9384 7.27838 14.0966C7.43661 14.2549 7.65122 14.3438 7.875 14.3438H12.6562V19.125C12.6562 19.3488 12.7451 19.5634 12.9034 19.7216C13.0616 19.8799 13.2762 19.9688 13.5 19.9688C13.7238 19.9688 13.9384 19.8799 14.0966 19.7216C14.2549 19.5634 14.3438 19.3488 14.3438 19.125V14.3438H19.125C19.3488 14.3438 19.5634 14.2549 19.7216 14.0966C19.8799 13.9384 19.9688 13.7238 19.9688 13.5C19.9688 13.2762 19.8799 13.0616 19.7216 12.9034C19.5634 12.7451 19.3488 12.6562 19.125 12.6562H14.3438V7.875Z" fill="#AAB1B8"/>
</svg>
