<svg width="1130" height="290" viewBox="0 0 1130 290" fill="none" xmlns="http://www.w3.org/2000/svg">
<rect width="1130" height="290" rx="2" fill="#EEEEEE"/>
<path d="M572 135H558C557.204 135 556.441 135.316 555.879 135.879C555.316 136.441 555 137.204 555 138V152C555 152.796 555.316 153.559 555.879 154.121C556.441 154.684 557.204 155 558 155H572C572.164 154.998 572.328 154.981 572.49 154.95L572.79 154.88H572.86H572.91L573.28 154.74L573.41 154.67C573.51 154.61 573.62 154.56 573.72 154.49C573.854 154.392 573.98 154.285 574.1 154.17L574.17 154.08C574.268 153.981 574.358 153.874 574.44 153.76L574.53 153.63C574.6 153.519 574.66 153.402 574.71 153.28C574.737 153.232 574.761 153.182 574.78 153.13C574.83 153.01 574.86 152.88 574.9 152.75V152.6C574.957 152.405 574.99 152.203 575 152V138C575 137.204 574.684 136.441 574.121 135.879C573.559 135.316 572.796 135 572 135ZM558 153C557.735 153 557.48 152.895 557.293 152.707C557.105 152.52 557 152.265 557 152V147.69L560.29 144.39C560.383 144.296 560.494 144.222 560.615 144.171C560.737 144.12 560.868 144.094 561 144.094C561.132 144.094 561.263 144.12 561.385 144.171C561.506 144.222 561.617 144.296 561.71 144.39L570.31 153H558ZM573 152C572.999 152.123 572.975 152.245 572.93 152.36C572.907 152.409 572.88 152.456 572.85 152.5C572.823 152.542 572.793 152.582 572.76 152.62L567.41 147.27L568.29 146.39C568.383 146.296 568.494 146.222 568.615 146.171C568.737 146.12 568.868 146.094 569 146.094C569.132 146.094 569.263 146.12 569.385 146.171C569.506 146.222 569.617 146.296 569.71 146.39L573 149.69V152ZM573 146.86L571.12 145C570.548 144.457 569.789 144.154 569 144.154C568.211 144.154 567.452 144.457 566.88 145L566 145.88L563.12 143C562.548 142.457 561.789 142.154 561 142.154C560.211 142.154 559.452 142.457 558.88 143L557 144.86V138C557 137.735 557.105 137.48 557.293 137.293C557.48 137.105 557.735 137 558 137H572C572.265 137 572.52 137.105 572.707 137.293C572.895 137.48 573 137.735 573 138V146.86ZM566.5 139C566.203 139 565.913 139.088 565.667 139.253C565.42 139.418 565.228 139.652 565.114 139.926C565.001 140.2 564.971 140.502 565.029 140.793C565.087 141.084 565.23 141.351 565.439 141.561C565.649 141.77 565.916 141.913 566.207 141.971C566.498 142.029 566.8 141.999 567.074 141.886C567.348 141.772 567.582 141.58 567.747 141.333C567.912 141.087 568 140.797 568 140.5C568 140.102 567.842 139.721 567.561 139.439C567.279 139.158 566.898 139 566.5 139Z" fill="black"/>
</svg>
