<svg width="45" height="45" viewBox="0 0 45 45" fill="none" xmlns="http://www.w3.org/2000/svg">
<g clip-path="url(#clip0_107_1784)">
<path fill-rule="evenodd" clip-rule="evenodd" d="M14.8875 24.4874C14.3608 23.9601 14.0649 23.2452 14.0649 22.4999C14.0649 21.7546 14.3608 21.0398 14.8875 20.5124L25.4925 9.90369C26.0201 9.37632 26.7356 9.08015 27.4816 9.08032C27.8509 9.08041 28.2167 9.15325 28.5579 9.29468C28.8991 9.43612 29.2092 9.64337 29.4703 9.90462C29.7314 10.1659 29.9385 10.476 30.0798 10.8173C30.2211 11.1586 30.2937 11.5243 30.2936 11.8937C30.2936 12.2631 30.2207 12.6288 30.0793 12.9701C29.9378 13.3113 29.7306 13.6213 29.4693 13.8824L20.8537 22.4999L29.4712 31.1174C29.74 31.3768 29.9544 31.687 30.1019 32.0301C30.2495 32.3731 30.3272 32.7421 30.3307 33.1156C30.3341 33.489 30.2631 33.8594 30.1218 34.2051C29.9806 34.5508 29.7719 34.8649 29.508 35.1291C29.244 35.3933 28.9301 35.6023 28.5845 35.7439C28.2389 35.8855 27.8686 35.9568 27.4952 35.9537C27.1217 35.9507 26.7526 35.8733 26.4094 35.726C26.0662 35.5788 25.7558 35.3647 25.4962 35.0962L14.8837 24.4874H14.8875Z" fill="black"/>
</g>
<defs>
<clipPath id="clip0_107_1784">
<rect width="45" height="45" fill="white"/>
</clipPath>
</defs>
</svg>
