<svg width="50" height="50" viewBox="0 0 50 50" fill="none" xmlns="http://www.w3.org/2000/svg">
<g clip-path="url(#clip0_153_1956)">
<path fill-rule="evenodd" clip-rule="evenodd" d="M16.5418 27.2079C15.9566 26.6219 15.6279 25.8277 15.6279 24.9995C15.6279 24.1714 15.9566 23.3772 16.5418 22.7912L28.3252 11.0037C28.9114 10.4178 29.7064 10.0887 30.5353 10.0889C30.9457 10.089 31.3521 10.1699 31.7312 10.327C32.1104 10.4842 32.4548 10.7145 32.745 11.0048C33.0351 11.295 33.2652 11.6396 33.4222 12.0188C33.5792 12.398 33.6599 12.8045 33.6598 13.2149C33.6597 13.6253 33.5788 14.0317 33.4216 14.4108C33.2645 14.7899 33.0342 15.1344 32.7439 15.4245L23.171 24.9995L32.746 34.5745C33.0446 34.8627 33.2828 35.2074 33.4468 35.5886C33.6108 35.9698 33.6972 36.3798 33.701 36.7947C33.7048 37.2096 33.6259 37.6212 33.4689 38.0053C33.312 38.3894 33.0801 38.7384 32.7868 39.032C32.4936 39.3255 32.1448 39.5578 31.7608 39.7151C31.3768 39.8724 30.9653 39.9516 30.5504 39.9482C30.1355 39.9448 29.7254 39.8588 29.344 39.6952C28.9627 39.5316 28.6178 39.2937 28.3293 38.9954L16.5377 27.2079H16.5418Z" fill="#8EA05D"/>
</g>
<defs>
<clipPath id="clip0_153_1956">
<rect width="50" height="50" fill="white"/>
</clipPath>
</defs>
</svg>
