<svg width="227" height="110" viewBox="0 0 227 110" fill="none" xmlns="http://www.w3.org/2000/svg">
<path d="M192.646 69.5833H189.453L188.321 68.492C190.847 65.5577 192.693 62.1012 193.727 58.3701C194.761 54.639 194.958 50.7255 194.303 46.9095C192.403 35.6737 183.027 26.7012 171.71 25.327C167.731 24.8237 163.69 25.2372 159.896 26.5359C156.102 27.8345 152.655 29.9839 149.82 32.8196C146.984 35.6553 144.835 39.1021 143.536 42.8963C142.237 46.6904 141.824 50.7314 142.327 54.71C143.701 66.0266 152.674 75.4033 163.91 77.3029C167.725 77.9578 171.639 77.7612 175.37 76.7271C179.101 75.6931 182.558 73.847 185.492 71.3212L186.583 72.4529V75.6458L203.76 92.8229C205.417 94.48 208.125 94.48 209.782 92.8229C211.44 91.1658 211.44 88.4579 209.782 86.8008L192.646 69.5833ZM168.396 69.5833C158.332 69.5833 150.208 61.4595 150.208 51.3958C150.208 41.332 158.332 33.2083 168.396 33.2083C178.46 33.2083 186.583 41.332 186.583 51.3958C186.583 61.4595 178.46 69.5833 168.396 69.5833Z" fill="#D9D9D9"/>
<rect x="1.5" y="1.5" width="203" height="59" rx="8.5" stroke="#D9D9D9" stroke-width="3"/>
</svg>
