<svg width="25" height="25" viewBox="0 0 25 25" fill="none" xmlns="http://www.w3.org/2000/svg">
<path d="M12.4997 2.0835C18.2528 2.0835 22.9163 6.74704 22.9163 12.5002C22.9163 18.2533 18.2528 22.9168 12.4997 22.9168C6.74655 22.9168 2.08301 18.2533 2.08301 12.5002C2.08301 6.74704 6.74655 2.0835 12.4997 2.0835ZM12.4997 16.6668C12.2234 16.6668 11.9585 16.7766 11.7631 16.9719C11.5678 17.1673 11.458 17.4322 11.458 17.7085C11.458 17.9848 11.5678 18.2497 11.7631 18.4451C11.9585 18.6404 12.2234 18.7502 12.4997 18.7502C12.7759 18.7502 13.0409 18.6404 13.2362 18.4451C13.4316 18.2497 13.5413 17.9848 13.5413 17.7085C13.5413 17.4322 13.4316 17.1673 13.2362 16.9719C13.0409 16.7766 12.7759 16.6668 12.4997 16.6668ZM12.4997 6.771C11.4982 6.771 10.5378 7.16883 9.82961 7.87697C9.12147 8.58512 8.72363 9.54557 8.72363 10.547C8.72363 10.8233 8.83338 11.0883 9.02873 11.2836C9.22408 11.479 9.48903 11.5887 9.7653 11.5887C10.0416 11.5887 10.3065 11.479 10.5019 11.2836C10.6972 11.0883 10.807 10.8233 10.807 10.547C10.8073 10.2398 10.8913 9.93842 11.0499 9.67525C11.2085 9.41209 11.4357 9.19706 11.7072 9.05321C11.9787 8.90935 12.2842 8.84211 12.591 8.8587C12.8978 8.87528 13.1943 8.97505 13.4487 9.14732C13.7032 9.3196 13.9059 9.55787 14.0352 9.83659C14.1645 10.1153 14.2155 10.424 14.1827 10.7295C14.15 11.035 14.0347 11.3258 13.8492 11.5708C13.6637 11.8157 13.415 12.0056 13.1299 12.12C12.4257 12.4012 11.458 13.122 11.458 14.3231V14.5835C11.458 14.8598 11.5678 15.1247 11.7631 15.3201C11.9585 15.5154 12.2234 15.6252 12.4997 15.6252C12.7759 15.6252 13.0409 15.5154 13.2362 15.3201C13.4316 15.1247 13.5413 14.8598 13.5413 14.5835C13.5413 14.3293 13.5934 14.2022 13.8132 14.0939L13.9038 14.0522C14.7172 13.7251 15.3914 13.1251 15.8109 12.3553C16.2303 11.5855 16.3689 10.6937 16.2029 9.83286C16.0369 8.97202 15.5766 8.19575 14.901 7.63711C14.2253 7.07847 13.3764 6.77227 12.4997 6.771Z" fill="black"/>
</svg>
