<svg width="20" height="20" viewBox="0 0 20 20" fill="none" xmlns="http://www.w3.org/2000/svg">
<g clip-path="url(#clip0_70_4774)">
<path d="M10.0001 1.66663C14.6026 1.66663 18.3334 5.39746 18.3334 9.99996C18.3334 14.6025 14.6026 18.3333 10.0001 18.3333C5.39758 18.3333 1.66675 14.6025 1.66675 9.99996C1.66675 5.39746 5.39758 1.66663 10.0001 1.66663ZM10.0001 13.3333C9.77907 13.3333 9.56711 13.4211 9.41083 13.5774C9.25455 13.7337 9.16675 13.9456 9.16675 14.1666C9.16675 14.3876 9.25455 14.5996 9.41083 14.7559C9.56711 14.9122 9.77907 15 10.0001 15C10.2211 15 10.4331 14.9122 10.5893 14.7559C10.7456 14.5996 10.8334 14.3876 10.8334 14.1666C10.8334 13.9456 10.7456 13.7337 10.5893 13.5774C10.4331 13.4211 10.2211 13.3333 10.0001 13.3333ZM10.0001 5.41663C9.19891 5.41663 8.43055 5.73489 7.86403 6.30141C7.29751 6.86792 6.97925 7.63628 6.97925 8.43746C6.97925 8.65847 7.06705 8.87043 7.22333 9.02672C7.37961 9.183 7.59157 9.27079 7.81258 9.27079C8.0336 9.27079 8.24556 9.183 8.40184 9.02672C8.55812 8.87043 8.64592 8.65847 8.64592 8.43746C8.64619 8.19166 8.71337 7.95056 8.84023 7.74003C8.9671 7.5295 9.14889 7.35747 9.36609 7.24239C9.58329 7.12731 9.82771 7.07352 10.0732 7.08678C10.3186 7.10005 10.5558 7.17987 10.7593 7.31769C10.9629 7.45551 11.1251 7.64612 11.2285 7.8691C11.3319 8.09208 11.3727 8.33901 11.3465 8.58341C11.3203 8.82781 11.2281 9.06047 11.0797 9.25643C10.9313 9.4524 10.7324 9.60428 10.5042 9.69579C9.94092 9.92079 9.16675 10.4975 9.16675 11.4583V11.6666C9.16675 11.8876 9.25455 12.0996 9.41083 12.2559C9.56711 12.4122 9.77907 12.5 10.0001 12.5C10.2211 12.5 10.4331 12.4122 10.5893 12.2559C10.7456 12.0996 10.8334 11.8876 10.8334 11.6666C10.8334 11.4633 10.8751 11.3616 11.0509 11.275L11.1234 11.2416C11.7741 10.9799 12.3135 10.4999 12.649 9.88406C12.9846 9.2682 13.0955 8.55478 12.9627 7.86611C12.8299 7.17745 12.4616 6.55643 11.9211 6.10952C11.3806 5.66261 10.7014 5.41765 10.0001 5.41663Z" fill="black"/>
</g>
<defs>
<clipPath id="clip0_70_4774">
<rect width="20" height="20" fill="white"/>
</clipPath>
</defs>
</svg>
