<svg width="45" height="45" viewBox="0 0 45 45" fill="none" xmlns="http://www.w3.org/2000/svg">
<g clip-path="url(#clip0_107_1788)">
<path fill-rule="evenodd" clip-rule="evenodd" d="M30.1125 20.5126C30.6392 21.0399 30.935 21.7548 30.935 22.5001C30.935 23.2454 30.6392 23.9602 30.1125 24.4876L19.5075 35.0963C18.9799 35.6237 18.2644 35.9199 17.5184 35.9197C16.7724 35.9195 16.057 35.623 15.5297 35.0954C15.0023 34.5678 14.7061 33.8523 14.7063 33.1063C14.7065 32.3603 15.003 31.6449 15.5306 31.1176L24.1481 22.5001L15.5306 13.8826C15.018 13.3524 14.7342 12.6421 14.7403 11.9046C14.7463 11.1672 15.0418 10.4616 15.563 9.93993C16.0842 9.41823 16.7895 9.12211 17.5269 9.11535C18.2643 9.1086 18.9749 9.39175 19.5056 9.90383L30.1144 20.5107L30.1125 20.5126Z" fill="black"/>
</g>
<defs>
<clipPath id="clip0_107_1788">
<rect width="45" height="45" fill="white"/>
</clipPath>
</defs>
</svg>
