<svg width="50" height="50" viewBox="0 0 50 50" fill="none" xmlns="http://www.w3.org/2000/svg">
<g clip-path="url(#clip0_153_1919)">
<path fill-rule="evenodd" clip-rule="evenodd" d="M33.4583 22.7916C34.0435 23.3776 34.3722 24.1719 34.3722 25C34.3722 25.8281 34.0435 26.6224 33.4583 27.2083L21.675 38.9958C21.0887 39.5818 20.2937 39.9109 19.4649 39.9107C18.636 39.9105 17.8411 39.581 17.2552 38.9948C16.6692 38.4085 16.3401 37.6135 16.3403 36.7847C16.3405 35.9558 16.67 35.1609 17.2562 34.575L26.8312 25L17.2562 15.425C16.6867 14.8359 16.3713 14.0466 16.3781 13.2273C16.3848 12.4079 16.7131 11.6239 17.2922 11.0443C17.8713 10.4646 18.655 10.1356 19.4743 10.1281C20.2937 10.1206 21.0832 10.4352 21.6729 11.0041L33.4604 22.7896L33.4583 22.7916Z" fill="#8EA05D"/>
</g>
<defs>
<clipPath id="clip0_153_1919">
<rect width="50" height="50" fill="white"/>
</clipPath>
</defs>
</svg>
