<svg width="23" height="23" viewBox="0 0 23 23" fill="none" xmlns="http://www.w3.org/2000/svg">
<path d="M16.8652 14.8329H15.7994L15.4217 14.4688C16.2648 13.49 16.8809 12.3369 17.2261 11.0923C17.5713 9.8476 17.6369 8.54207 17.4183 7.2691C16.7842 3.52092 13.6544 0.527765 9.87704 0.0693544C8.54905 -0.098551 7.20023 0.0393846 5.93378 0.472606C4.66734 0.905828 3.51684 1.62285 2.57032 2.56881C1.6238 3.51477 0.906359 4.6646 0.472883 5.9303C0.0394077 7.19601 -0.0986088 8.54404 0.0693951 9.87125C0.528075 13.6464 3.52298 16.7744 7.27336 17.4081C8.54708 17.6266 9.85337 17.561 11.0988 17.216C12.3442 16.871 13.4979 16.2552 14.4773 15.4126L14.8416 15.7901V16.8553L20.5751 22.5854C21.1282 23.1382 22.0321 23.1382 22.5852 22.5854C23.1383 22.0326 23.1383 21.1293 22.5852 20.5765L16.8652 14.8329ZM8.77082 14.8329C5.41166 14.8329 2.70006 12.1229 2.70006 8.76567C2.70006 5.40849 5.41166 2.69847 8.77082 2.69847C12.13 2.69847 14.8416 5.40849 14.8416 8.76567C14.8416 12.1229 12.13 14.8329 8.77082 14.8329Z" fill="#979EA7"/>
</svg>
