<svg width="45" height="45" viewBox="0 0 45 45" fill="none" xmlns="http://www.w3.org/2000/svg">
<path d="M23.8257 4.29946C23.4741 3.94795 22.9973 3.75049 22.5001 3.75049C22.0029 3.75049 21.5261 3.94795 21.1745 4.29946L13.6745 11.7995C13.3902 12.0838 13.2048 12.452 13.1458 12.8497C13.0867 13.2474 13.157 13.6535 13.3463 14.0082C13.8095 14.8763 14.5332 15.4613 15.2401 15.8588L9.92447 21.1745C9.57296 21.5261 9.3755 22.0029 9.3755 22.5001C9.3755 22.9973 9.57296 23.4741 9.92447 23.8257C10.8207 24.722 11.9532 25.2695 12.9882 25.6107L8.04947 30.5495C7.82309 30.7761 7.65853 31.0569 7.57151 31.3652C7.48448 31.6735 7.47788 31.9989 7.55233 32.3104C7.62679 32.622 7.77982 32.9093 7.99682 33.1449C8.21383 33.3805 8.48759 33.5566 8.79197 33.6563C10.0857 34.082 11.4226 34.3838 12.7576 34.6501C14.2201 34.9445 16.0313 35.2351 18.092 35.4226L16.9707 38.7826C16.8768 39.0645 16.8513 39.3646 16.8962 39.6583C16.941 39.952 17.0551 40.2308 17.2288 40.4718C17.4026 40.7128 17.6312 40.909 17.8956 41.0443C18.1601 41.1796 18.453 41.2502 18.7501 41.2501H26.2501C26.5472 41.2502 26.8401 41.1796 27.1045 41.0443C27.369 40.909 27.5976 40.7128 27.7714 40.4718C27.9451 40.2308 28.0592 39.952 28.104 39.6583C28.1489 39.3646 28.1234 39.0645 28.0295 38.7826L26.9082 35.4226C28.9707 35.2351 30.782 34.9445 32.2426 34.652C33.5776 34.3838 34.9238 34.082 36.2176 33.6545C36.5209 33.5534 36.7933 33.3766 37.009 33.1406C37.2247 32.9047 37.3765 32.6175 37.45 32.3064C37.5234 31.9953 37.5161 31.6705 37.4287 31.363C37.3414 31.0555 37.1768 30.7755 36.9507 30.5495L32.012 25.6107C33.047 25.2713 34.1795 24.722 35.0757 23.8257C35.4272 23.4741 35.6247 22.9973 35.6247 22.5001C35.6247 22.0029 35.4272 21.5261 35.0757 21.1745L29.7601 15.8588C30.467 15.4613 31.1907 14.8763 31.6538 14.0082C31.8432 13.6535 31.9135 13.2474 31.8544 12.8497C31.7954 12.452 31.61 12.0838 31.3257 11.7995L23.8257 4.29946Z" fill="black"/>
</svg>
