<svg width="35" height="35" viewBox="0 0 35 35" fill="none" xmlns="http://www.w3.org/2000/svg">
<g clip-path="url(#clip0_153_1935)">
<path fill-rule="evenodd" clip-rule="evenodd" d="M19.046 11.5789C18.6359 11.1693 18.0799 10.9392 17.5002 10.9392C16.9205 10.9392 16.3645 11.1693 15.9544 11.5789L7.70313 19.8273C7.29295 20.2376 7.0626 20.7941 7.06273 21.3744C7.06287 21.9546 7.29349 22.511 7.70386 22.9211C8.11422 23.3313 8.67073 23.5617 9.25094 23.5615C9.83115 23.5614 10.3875 23.3308 10.7977 22.9204L17.5002 16.2179L24.2027 22.9204C24.6151 23.3191 25.1676 23.5398 25.7411 23.5351C26.3147 23.5304 26.8634 23.3006 27.2692 22.8952C27.675 22.4898 27.9053 21.9413 27.9106 21.3677C27.9158 20.7942 27.6956 20.2415 27.2973 19.8287L19.0475 11.5775L19.046 11.5789Z" fill="black"/>
</g>
<defs>
<clipPath id="clip0_153_1935">
<rect width="35" height="35" fill="white" transform="matrix(0 -1 -1 0 35 35)"/>
</clipPath>
</defs>
</svg>
