<svg width="30" height="30" viewBox="0 0 30 30" fill="none" xmlns="http://www.w3.org/2000/svg">
<g clip-path="url(#clip0_70_5188)">
<path fill-rule="evenodd" clip-rule="evenodd" d="M15.6044 14.7291C15.3115 15.0217 14.9143 15.186 14.5003 15.186C14.0862 15.186 13.6891 15.0217 13.3961 14.7291L7.50235 8.83741C7.20936 8.54429 7.04482 8.14679 7.04492 7.73235C7.04497 7.52715 7.08544 7.32396 7.16401 7.13439C7.24259 6.94482 7.35773 6.77258 7.50287 6.62751C7.648 6.48244 7.8203 6.36738 8.0099 6.2889C8.19951 6.21041 8.40271 6.17004 8.60792 6.17009C8.81313 6.17014 9.01632 6.2106 9.20589 6.28918C9.39546 6.36775 9.56769 6.4829 9.71276 6.62803L14.5003 11.4145L19.2878 6.62699C19.4318 6.47769 19.6042 6.35858 19.7948 6.2766C19.9854 6.19462 20.1904 6.15142 20.3978 6.14952C20.6053 6.14762 20.8111 6.18706 21.0031 6.26553C21.1952 6.34401 21.3697 6.45994 21.5165 6.60658C21.6633 6.75322 21.7794 6.92762 21.858 7.11961C21.9367 7.3116 21.9763 7.51732 21.9746 7.72479C21.9729 7.93226 21.9299 8.13731 21.8481 8.32798C21.7663 8.51865 21.6473 8.69112 21.4982 8.83533L15.6044 14.7312V14.7291Z" fill="white"/>
</g>
<defs>
<clipPath id="clip0_70_5188">
<rect width="30" height="30" fill="white" transform="matrix(0 -1 1 0 0 30)"/>
</clipPath>
</defs>
</svg>
