<svg width="25" height="25" viewBox="0 0 25 25" fill="none" xmlns="http://www.w3.org/2000/svg">
<path fill-rule="evenodd" clip-rule="evenodd" d="M11.3956 8.27092C11.6885 7.97832 12.0857 7.81396 12.4997 7.81396C12.9138 7.81396 13.3109 7.97832 13.6039 8.27092L19.4977 14.1626C19.7906 14.4557 19.9552 14.8532 19.9551 15.2676C19.955 15.4729 19.9146 15.676 19.836 15.8656C19.7574 16.0552 19.6423 16.2274 19.4971 16.3725C19.352 16.5176 19.1797 16.6326 18.9901 16.7111C18.8005 16.7896 18.5973 16.83 18.3921 16.8299C18.1869 16.8299 17.9837 16.7894 17.7941 16.7108C17.6045 16.6322 17.4323 16.5171 17.2872 16.372L12.4997 11.5855L7.71224 16.373C7.56817 16.5223 7.39581 16.6414 7.20522 16.7234C7.01463 16.8054 6.80962 16.8486 6.60215 16.8505C6.39469 16.8524 6.18892 16.8129 5.99686 16.7345C5.8048 16.656 5.63029 16.5401 5.48351 16.3934C5.33673 16.2468 5.22063 16.0724 5.14198 15.8804C5.06332 15.6884 5.02369 15.4827 5.0254 15.2752C5.0271 15.0677 5.07011 14.8627 5.1519 14.672C5.2337 14.4813 5.35265 14.3089 5.50182 14.1647L11.3956 8.26884V8.27092Z" fill="white"/>
</svg>
