<svg width="25" height="25" viewBox="0 0 25 25" fill="none" xmlns="http://www.w3.org/2000/svg">
<path fill-rule="evenodd" clip-rule="evenodd" d="M13.6044 16.7291C13.3115 17.0217 12.9143 17.186 12.5003 17.186C12.0862 17.186 11.6891 17.0217 11.3961 16.7291L5.50235 10.8374C5.20936 10.5443 5.04482 10.1468 5.04492 9.73235C5.04497 9.52715 5.08544 9.32396 5.16401 9.13439C5.24259 8.94482 5.35773 8.77258 5.50287 8.62751C5.648 8.48244 5.8203 8.36738 6.0099 8.2889C6.19951 8.21041 6.40271 8.17004 6.60792 8.17009C6.81313 8.17014 7.01632 8.2106 7.20589 8.28918C7.39546 8.36775 7.56769 8.4829 7.71276 8.62803L12.5003 13.4145L17.2878 8.62699C17.4318 8.47769 17.6042 8.35858 17.7948 8.2766C17.9854 8.19462 18.1904 8.15142 18.3978 8.14952C18.6053 8.14762 18.8111 8.18706 19.0031 8.26553C19.1952 8.34401 19.3697 8.45994 19.5165 8.60658C19.6633 8.75322 19.7794 8.92762 19.858 9.11961C19.9367 9.3116 19.9763 9.51733 19.9746 9.72479C19.9729 9.93226 19.9299 10.1373 19.8481 10.328C19.7663 10.5187 19.6473 10.6911 19.4982 10.8353L13.6044 16.7312V16.7291Z" fill="white"/>
</svg>
