<svg width="27" height="27" viewBox="0 0 27 27" fill="none" xmlns="http://www.w3.org/2000/svg">
<path fill-rule="evenodd" clip-rule="evenodd" d="M20.2838 8.96624C20.4418 9.12444 20.5306 9.3389 20.5306 9.56249C20.5306 9.78608 20.4418 10.0005 20.2838 10.1587L12.4088 18.0337C12.2506 18.1917 12.0361 18.2805 11.8126 18.2805C11.589 18.2805 11.3745 18.1917 11.2163 18.0337L6.7163 13.5337C6.6334 13.4565 6.56691 13.3633 6.5208 13.2598C6.47468 13.1563 6.44988 13.0446 6.44789 12.9313C6.44589 12.818 6.46673 12.7055 6.50916 12.6004C6.5516 12.4954 6.61476 12.3999 6.69488 12.3198C6.775 12.2397 6.87044 12.1765 6.9755 12.1341C7.08056 12.0917 7.1931 12.0708 7.30639 12.0728C7.41968 12.0748 7.53141 12.0996 7.63491 12.1457C7.73841 12.1919 7.83156 12.2583 7.9088 12.3412L11.8126 16.245L19.0913 8.96624C19.2495 8.80823 19.464 8.71948 19.6876 8.71948C19.9111 8.71948 20.1256 8.80823 20.2838 8.96624Z" fill="white"/>
</svg>
