<svg width="35" height="35" viewBox="0 0 35 35" fill="none" xmlns="http://www.w3.org/2000/svg">
<path d="M28.5044 26.183C28.8126 26.4912 28.9858 26.9093 28.9858 27.3451C28.9858 27.781 28.8126 28.199 28.5044 28.5073C28.1962 28.8155 27.7782 28.9886 27.3423 28.9886C26.9064 28.9886 26.4884 28.8155 26.1802 28.5073L17.4999 19.8242L8.81693 28.5045C8.50872 28.8127 8.0907 28.9859 7.65482 28.9859C7.21895 28.9859 6.80092 28.8127 6.49271 28.5045C6.1845 28.1963 6.01135 27.7783 6.01135 27.3424C6.01135 26.9065 6.1845 26.4885 6.49271 26.1803L15.1757 17.5L6.49545 8.81702C6.18724 8.50881 6.01409 8.09078 6.01409 7.65491C6.01409 7.21903 6.18724 6.80101 6.49545 6.4928C6.80366 6.18459 7.22168 6.01144 7.65756 6.01144C8.09343 6.01144 8.51146 6.18459 8.81967 6.4928L17.4999 15.1758L26.1829 6.49143C26.4912 6.18322 26.9092 6.01007 27.3451 6.01007C27.7809 6.01007 28.199 6.18322 28.5072 6.49143C28.8154 6.79964 28.9885 7.21767 28.9885 7.65354C28.9885 8.08942 28.8154 8.50744 28.5072 8.81565L19.8242 17.5L28.5044 26.183Z" fill="#767676"/>
</svg>
