<svg width="80" height="80" viewBox="0 0 80 80" fill="none" xmlns="http://www.w3.org/2000/svg">
<path fill-rule="evenodd" clip-rule="evenodd" d="M53.3334 29.9998C53.3334 33.5361 51.9286 36.9274 49.4281 39.4279C46.9276 41.9284 43.5362 43.3332 40 43.3332C36.4638 43.3332 33.0724 41.9284 30.5719 39.4279C28.0714 36.9274 26.6667 33.5361 26.6667 29.9998C26.6667 26.4636 28.0714 23.0722 30.5719 20.5717C33.0724 18.0713 36.4638 16.6665 40 16.6665C43.5362 16.6665 46.9276 18.0713 49.4281 20.5717C51.9286 23.0722 53.3334 26.4636 53.3334 29.9998ZM46.6667 29.9998C46.6667 31.7679 45.9643 33.4636 44.7141 34.7139C43.4638 35.9641 41.7681 36.6665 40 36.6665C38.2319 36.6665 36.5362 35.9641 35.286 34.7139C34.0357 33.4636 33.3334 31.7679 33.3334 29.9998C33.3334 28.2317 34.0357 26.536 35.286 25.2858C36.5362 24.0355 38.2319 23.3332 40 23.3332C41.7681 23.3332 43.4638 24.0355 44.7141 25.2858C45.9643 26.536 46.6667 28.2317 46.6667 29.9998Z" fill="black"/>
<path fill-rule="evenodd" clip-rule="evenodd" d="M40 3.33325C19.75 3.33325 3.33334 19.7499 3.33334 39.9999C3.33334 60.2499 19.75 76.6666 40 76.6666C60.25 76.6666 76.6667 60.2499 76.6667 39.9999C76.6667 19.7499 60.25 3.33325 40 3.33325ZM10 39.9999C10 46.9666 12.3767 53.3799 16.36 58.4733C19.1574 54.7996 22.7663 51.8224 26.9048 49.7743C31.0432 47.7262 35.5992 46.6626 40.2167 46.6666C44.7744 46.6623 49.2731 47.6983 53.3698 49.6959C57.4665 51.6934 61.0532 54.5997 63.8567 58.1933C66.7448 54.4053 68.6895 49.984 69.5297 45.2952C70.3699 40.6065 70.0815 35.785 68.6883 31.2299C67.2952 26.6747 64.8374 22.5167 61.5183 19.1C58.1992 15.6833 54.1142 13.1061 49.6013 11.5816C45.0884 10.0571 40.2773 9.62916 35.5662 10.3332C30.8551 11.0372 26.3793 12.8529 22.5092 15.6301C18.6392 18.4073 15.486 22.0662 13.3108 26.3039C11.1355 30.5417 10.0006 35.2365 10 39.9999ZM40 69.9999C33.1132 70.0103 26.4342 67.6411 21.0933 63.2933C23.2431 60.2157 26.1045 57.703 29.434 55.9689C32.7635 54.2348 36.4626 53.3306 40.2167 53.3333C43.9239 53.3303 47.5783 54.2118 50.8764 55.9047C54.1746 57.5975 57.0212 60.0528 59.18 63.0666C53.7977 67.5556 47.0086 70.0098 40 69.9999Z" fill="black"/>
</svg>
